<?xml version="1.0" encoding="utf-8"?>
<!-- Generator: Adobe Illustrator 28.0.0, SVG Export Plug-In . SVG Version: 6.00 Build 0)  -->
<svg version="1.1" xmlns="http://www.w3.org/2000/svg" xmlns:xlink="http://www.w3.org/1999/xlink" x="0px" y="0px"
	 viewBox="0 0 374.3 89.5" style="enable-background:new 0 0 374.3 89.5;" xml:space="preserve">
<style type="text/css">
	.st0{fill:#FFFFFF;}
	.st1{fill:#4F4F4F;}
</style>
<g id="Слой_1">
	<g id="Слой_1_00000140708586297722385030000005213717851044241832_">
	</g>
	<ellipse class="st0" cx="44.6" cy="44.3" rx="41.3" ry="41.3"/>
	<path class="st1" d="M44.6,5.1c21.6,0,39.2,17.5,39.2,39.2S66.2,83.5,44.6,83.5S5.4,65.9,5.4,44.3S22.9,5.1,44.6,5.1 M44.6,0.8
		c-24,0-43.4,19.5-43.4,43.4s19.5,43.4,43.4,43.4S88,68.2,88,44.3S68.5,0.8,44.6,0.8L44.6,0.8z"/>
	<g>
		<path class="st0" d="M37.6,68.6c-1,0-2-0.3-2.8-0.8L17.2,57c-1.6-1-2.5-2.7-2.5-4.6v-8.7c0-2,1.1-3.8,2.8-4.7
			c0.8-0.4,1.7-0.7,2.6-0.7c1,0,2,0.3,2.8,0.8L40.4,50c1.6,1,2.6,2.7,2.5,4.6v8.7c0,2-1.1,3.8-2.8,4.7
			C39.4,68.4,38.5,68.6,37.6,68.6z"/>
		<path class="st0" d="M37.6,67.4c-0.7,0-1.4-0.2-2-0.5c-1.3-0.7-2.2-2.2-2.2-3.7v-8.7c0-1.4,0.8-2.8,2-3.6l31-19.2
			c0.7-0.4,1.4-0.6,2.2-0.6c0.7,0,1.3,0.2,1.9,0.5c1.3,0.7,2.2,2,2.3,3.5l0.5,8.3c0.1,1.5-0.7,3-2,3.8L39.8,66.8
			C39.1,67.2,38.3,67.4,37.6,67.4z"/>
		<path class="st0" d="M37.6,68.6c-0.9,0-1.8-0.2-2.6-0.7c-1.7-1-2.8-2.8-2.8-4.7v-8.6c0-1.9,1-3.6,2.5-4.6l31-19.2
			c0.9-0.5,1.8-0.8,2.8-0.8c0.9,0,1.7,0.2,2.5,0.6c1.7,0.9,2.8,2.6,2.9,4.5l0.5,8.3c0.1,2-0.9,3.8-2.5,4.9L40.4,67.8
			C39.6,68.4,38.6,68.6,37.6,68.6z"/>
		<path class="st0" d="M68.6,40.8c-1,0-2-0.3-2.8-0.8L48.2,29.1c-1.2-0.8-2.1-1.9-2.4-3.4c-0.3-1.4-0.1-2.8,0.7-4.1
			c1-1.6,2.7-2.5,4.6-2.5c1,0,2,0.3,2.8,0.8l17.5,10.9c1.2,0.8,2.1,1.9,2.4,3.4c0.3,1.4,0.1,2.8-0.7,4.1
			C72.2,39.8,70.4,40.8,68.6,40.8z"/>
		<path class="st0" d="M20.1,49.1c-1.9,0-3.6-1-4.6-2.6c-0.8-1.2-1-2.7-0.7-4.1c0.3-1.4,1.2-2.6,2.4-3.4l31-19.2
			C49.1,19.3,50,19,51,19c1.9,0,3.6,1,4.6,2.5c0.8,1.2,1,2.7,0.7,4.1C56,27,55.1,28.2,53.9,29l-31,19.2
			C22.1,48.8,21.1,49.1,20.1,49.1z"/>
		<path class="st0" d="M38.4,53.5c-0.8,0-1.5-0.2-2.2-0.6l-11.1-6.8c-1.2-0.8-2-2.1-2-3.6s0.8-2.8,2-3.6l22.6-13.8
			c0.7-0.4,1.4-0.6,2.2-0.6s1.5,0.2,2.2,0.6l11.1,6.8c1.2,0.8,2,2.1,2,3.6s-0.8,2.8-2,3.6L40.6,52.9C39.9,53.3,39.1,53.5,38.4,53.5z
			"/>
	</g>
	<g>
		<path class="st1" d="M35.3,70.8c-0.3,0-0.6-0.1-0.8-0.2L11.6,56.4c-0.5-0.3-0.7-0.8-0.7-1.3V43.7c0-0.6,0.3-1.1,0.8-1.4
			c0.5-0.3,1.1-0.3,1.6,0l22.9,14.2c0.5,0.3,0.7,0.8,0.7,1.3l-0.1,11.4c0,0.6-0.3,1.1-0.8,1.4C35.8,70.7,35.5,70.8,35.3,70.8z
			 M14,54.2l19.8,12.3v-7.7L14,46.5V54.2z"/>
		<polygon class="st1" points="35.3,69.2 76.4,43.7 75.8,32.8 35.3,57.9 		"/>
		<path class="st1" d="M35.3,70.8c-0.3,0-0.5-0.1-0.8-0.2c-0.5-0.3-0.8-0.8-0.8-1.4V57.9c0-0.5,0.3-1,0.7-1.3l40.5-25.1
			c0.5-0.3,1.1-0.3,1.5-0.1c0.5,0.3,0.8,0.7,0.8,1.3l0.6,10.9c0,0.6-0.2,1.1-0.7,1.4l-41,25.5C35.8,70.7,35.6,70.8,35.3,70.8z
			 M36.9,58.8v7.6l38-23.6l-0.4-7.4L36.9,58.8z"/>
		<path class="st1" d="M75.8,34.3c-0.3,0-0.6-0.1-0.8-0.2L52.1,19.9c-0.7-0.5-1-1.4-0.5-2.1s1.4-1,2.1-0.5l22.9,14.2
			c0.7,0.5,1,1.4,0.5,2.1C76.9,34.1,76.3,34.3,75.8,34.3z"/>
		<path class="st1" d="M12.4,45.2c-0.5,0-1-0.3-1.3-0.7c-0.5-0.7-0.2-1.7,0.5-2.1l40.5-25.2c0.7-0.5,1.7-0.2,2.1,0.5
			c0.5,0.7,0.2,1.7-0.5,2.1L13.2,45C13,45.2,12.7,45.2,12.4,45.2z"/>
		<polygon class="st1" points="51.4,24 21.8,42.1 36.3,51 65.9,32.9 		"/>
	</g>
</g>
<g id="Слой_2">
	<g>
		<path class="st0" d="M133.8,60.9h-10.3L111,45.3v15.6h-8.9V26.5h8.9v15.1l11.8-15.1h10.6l-13.8,17L133.8,60.9z"/>
		<path class="st1" d="M133.4,26.5l-13.8,17l14.2,17.4h-10.3L111,45.3v15.6h-8.9V26.5h8.9v15.1l11.8-15.1H133.4 M133.4,22.3h-10.6
			c-1.3,0-2.5,0.6-3.3,1.6l-4.2,5.4v-2.8c0-2.3-1.9-4.3-4.3-4.3h-8.9c-2.3,0-4.3,1.9-4.3,4.3v34.4c0,2.3,1.9,4.3,4.3,4.3h8.9
			c2.3,0,4.3-1.9,4.3-4.3v-3.5l4.9,6.2c0.8,1,2,1.6,3.3,1.6h10.3c1.6,0,3.1-0.9,3.8-2.4s0.5-3.2-0.6-4.5l-12-14.7l11.6-14.3
			c1-1.3,1.2-3,0.5-4.5C136.6,23.2,135.1,22.3,133.4,22.3L133.4,22.3z M133.4,30.8L133.4,30.8L133.4,30.8L133.4,30.8z"/>
	</g>
	<g>
		<path class="st0" d="M163,56.6c-3.5,3.5-7.8,5.3-12.9,5.3c-5.1,0-9.4-1.8-12.9-5.3c-3.5-3.5-5.3-7.8-5.3-12.9
			c0-5.1,1.8-9.4,5.3-12.9c3.5-3.5,7.8-5.3,12.9-5.3c5.1,0,9.4,1.8,12.9,5.3c3.5,3.5,5.3,7.8,5.3,12.9
			C168.3,48.8,166.5,53.1,163,56.6z M143.4,50.5c1.8,1.8,4,2.7,6.6,2.7c2.7,0,4.9-0.9,6.7-2.7c1.8-1.8,2.7-4.1,2.7-6.8
			c0-2.8-0.9-5-2.7-6.8c-1.8-1.8-4-2.7-6.7-2.7c-2.7,0-4.9,0.9-6.6,2.7c-1.8,1.8-2.6,4.1-2.6,6.8C140.8,46.5,141.7,48.7,143.4,50.5z
			"/>
		<path class="st1" d="M150.1,25.6c5.1,0,9.4,1.8,12.9,5.3c3.5,3.5,5.3,7.8,5.3,12.9c0,5.1-1.8,9.4-5.3,12.9
			c-3.5,3.5-7.8,5.3-12.9,5.3c-5.1,0-9.4-1.8-12.9-5.3c-3.5-3.5-5.3-7.8-5.3-12.9c0-5.1,1.8-9.4,5.3-12.9S145,25.6,150.1,25.6
			 M150.1,53.2c2.7,0,4.9-0.9,6.7-2.7c1.8-1.8,2.7-4.1,2.7-6.8c0-2.8-0.9-5-2.7-6.8c-1.8-1.8-4-2.7-6.7-2.7c-2.7,0-4.9,0.9-6.6,2.7
			c-1.8,1.8-2.6,4.1-2.6,6.8c0,2.8,0.9,5,2.6,6.8C145.2,52.3,147.4,53.2,150.1,53.2 M150.1,21.3c-6.2,0-11.6,2.2-15.9,6.5
			c-4.3,4.3-6.5,9.7-6.5,15.9c0,6.2,2.2,11.6,6.5,15.9c4.3,4.3,9.7,6.5,15.9,6.5c6.2,0,11.6-2.2,15.9-6.5c4.3-4.3,6.6-9.7,6.6-15.9
			c0-6.2-2.2-11.6-6.6-15.9C161.6,23.5,156.3,21.3,150.1,21.3L150.1,21.3z M150.1,48.9c-1.5,0-2.6-0.4-3.6-1.4c-1-1-1.4-2.2-1.4-3.8
			c0-1.6,0.5-2.8,1.4-3.8c1-1,2.1-1.4,3.6-1.4c1.5,0,2.7,0.4,3.7,1.4c1,1,1.4,2.2,1.4,3.8c0,1.6-0.5,2.8-1.4,3.8
			C152.7,48.5,151.6,48.9,150.1,48.9L150.1,48.9z"/>
	</g>
	<g>
		<path class="st0" d="M192.5,25.6c4.6,0,8.6,1.8,11.9,5.3c3.3,3.5,4.9,7.8,4.9,12.9c0,5.1-1.6,9.4-4.9,12.9
			c-3.3,3.5-7.2,5.3-11.9,5.3c-4.8,0-8.5-1.7-11.1-5v17.8h-8.9V26.5h8.9v4.1C184,27.2,187.7,25.6,192.5,25.6z M184,50.7
			c1.8,1.8,4.1,2.7,6.8,2.7s5-0.9,6.8-2.7c1.8-1.8,2.7-4.1,2.7-7c0-2.8-0.9-5.2-2.7-7c-1.8-1.8-4.1-2.7-6.8-2.7s-5,0.9-6.8,2.7
			c-1.8,1.8-2.7,4.1-2.7,7C181.4,46.6,182.3,48.9,184,50.7z"/>
		<path class="st1" d="M192.5,25.6c4.6,0,8.6,1.8,11.9,5.3c3.3,3.5,4.9,7.8,4.9,12.9c0,5.1-1.6,9.4-4.9,12.9
			c-3.3,3.5-7.2,5.3-11.9,5.3c-4.8,0-8.5-1.7-11.1-5v17.8h-8.9V26.5h8.9v4.1C184,27.2,187.7,25.6,192.5,25.6 M190.8,53.4
			c2.8,0,5-0.9,6.8-2.7c1.8-1.8,2.7-4.1,2.7-7c0-2.8-0.9-5.2-2.7-7c-1.8-1.8-4.1-2.7-6.8-2.7c-2.8,0-5,0.9-6.8,2.7
			c-1.8,1.8-2.7,4.1-2.7,7c0,2.8,0.9,5.2,2.7,7C185.8,52.5,188.1,53.4,190.8,53.4 M192.5,21.3c-3.2,0-6,0.6-8.6,1.8
			c-0.7-0.5-1.6-0.9-2.6-0.9h-8.9c-2.3,0-4.3,1.9-4.3,4.3v48.1c0,2.3,1.9,4.3,4.3,4.3h8.9c2.3,0,4.3-1.9,4.3-4.3V65
			c2.1,0.8,4.4,1.1,6.9,1.1c5.8,0,10.9-2.2,15-6.6c4-4.3,6.1-9.6,6.1-15.8c0-6.2-2-11.5-6.1-15.8C203.4,23.5,198.3,21.3,192.5,21.3
			L192.5,21.3z M190.8,49.2c-1.6,0-2.8-0.4-3.8-1.5c-0.6-0.6-1.5-1.7-1.5-4c0-2.3,0.8-3.4,1.5-4c1-1,2.2-1.5,3.8-1.5
			c1.6,0,2.8,0.5,3.8,1.5c1,1,1.5,2.3,1.5,4c0,1.7-0.5,3-1.5,4C193.7,48.7,192.5,49.2,190.8,49.2L190.8,49.2z"/>
	</g>
	<g>
		<path class="st0" d="M245.6,56.6c-3.5,3.5-7.8,5.3-12.9,5.3c-5.1,0-9.4-1.8-12.9-5.3c-3.5-3.5-5.3-7.8-5.3-12.9
			c0-5.1,1.8-9.4,5.3-12.9c3.5-3.5,7.8-5.3,12.9-5.3c5.1,0,9.4,1.8,12.9,5.3s5.3,7.8,5.3,12.9C250.9,48.8,249.1,53.1,245.6,56.6z
			 M226,50.5c1.8,1.8,4,2.7,6.6,2.7c2.7,0,4.9-0.9,6.7-2.7c1.8-1.8,2.7-4.1,2.7-6.8c0-2.8-0.9-5-2.7-6.8c-1.8-1.8-4-2.7-6.7-2.7
			c-2.7,0-4.9,0.9-6.6,2.7c-1.8,1.8-2.6,4.1-2.6,6.8C223.4,46.5,224.3,48.7,226,50.5z"/>
		<path class="st1" d="M232.7,25.6c5.1,0,9.4,1.8,12.9,5.3s5.3,7.8,5.3,12.9c0,5.1-1.8,9.4-5.3,12.9c-3.5,3.5-7.8,5.3-12.9,5.3
			s-9.4-1.8-12.9-5.3c-3.5-3.5-5.3-7.8-5.3-12.9c0-5.1,1.8-9.4,5.3-12.9C223.3,27.3,227.6,25.6,232.7,25.6 M232.7,53.2
			c2.7,0,4.9-0.9,6.7-2.7c1.8-1.8,2.7-4.1,2.7-6.8c0-2.8-0.9-5-2.7-6.8c-1.8-1.8-4-2.7-6.7-2.7c-2.7,0-4.9,0.9-6.6,2.7
			s-2.6,4.1-2.6,6.8c0,2.8,0.9,5,2.6,6.8C227.8,52.3,230,53.2,232.7,53.2 M232.7,21.3c-6.2,0-11.6,2.2-15.9,6.5
			c-4.3,4.3-6.5,9.7-6.5,15.9c0,6.2,2.2,11.6,6.5,15.9c4.3,4.3,9.7,6.5,15.9,6.5c6.2,0,11.6-2.2,15.9-6.5c4.3-4.3,6.6-9.7,6.6-15.9
			c0-6.2-2.2-11.6-6.6-15.9C244.3,23.5,238.9,21.3,232.7,21.3L232.7,21.3z M232.7,48.9c-1.5,0-2.6-0.4-3.6-1.4c-1-1-1.4-2.2-1.4-3.8
			c0-1.6,0.5-2.8,1.4-3.8c1-1,2.1-1.4,3.6-1.4c1.5,0,2.7,0.4,3.7,1.4c1,1,1.4,2.2,1.4,3.8c0,1.6-0.5,2.8-1.4,3.8
			C235.4,48.5,234.2,48.9,232.7,48.9L232.7,48.9z"/>
	</g>
	<g>
		<path class="st0" d="M274.2,61.9c-5.4,0-9.8-1.7-13.1-5.2c-3.3-3.5-5-7.9-5-13.3c0-5.9,0.9-10.4,2.6-13.6
			c1.7-3.2,5.2-6.1,10.5-8.7c0.8-0.4,1.9-0.9,3.3-1.5c1.4-0.7,2.4-1.1,2.9-1.4s1.2-0.7,2.2-1.2c0.9-0.6,1.6-1,2-1.5
			c0.4-0.4,0.8-1,1.3-1.7c0.5-0.7,0.8-1.4,1.1-2.3l7.3,4.2c-0.6,2.8-1.9,5-4,6.5c-2.1,1.5-5.2,3.1-9.4,4.7c-2.9,1.1-5.1,2.3-6.4,3.4
			c-1.3,1.1-2.3,2.5-2.9,4.1c2.6-2.6,6-3.9,10.3-3.9c3.8,0,7.2,1.4,10.2,4.2c3,2.8,4.5,6.5,4.5,11c0,4.7-1.6,8.6-4.8,11.6
			C283.6,60.4,279.4,61.9,274.2,61.9z M267.9,51.4c1.7,1.6,3.7,2.3,6.2,2.3c2.5,0,4.5-0.8,6.1-2.3c1.6-1.5,2.4-3.4,2.4-5.8
			c0-2.3-0.8-4.3-2.4-5.8c-1.6-1.5-3.7-2.3-6.2-2.3c-2.2,0-4.3,0.7-6,2.1c-1.8,1.4-2.6,3.3-2.6,5.7
			C265.4,47.9,266.3,49.9,267.9,51.4z"/>
		<path class="st1" d="M282,11.5l7.3,4.2c-0.6,2.8-1.9,5-4,6.5c-2.1,1.5-5.2,3.1-9.4,4.7c-2.9,1.1-5.1,2.3-6.4,3.4
			c-1.3,1.1-2.3,2.5-2.9,4.1c2.6-2.6,6-3.9,10.3-3.9c3.8,0,7.2,1.4,10.2,4.2c3,2.8,4.5,6.5,4.5,11c0,4.7-1.6,8.6-4.8,11.6
			c-3.2,3-7.4,4.5-12.6,4.5c-5.4,0-9.8-1.7-13.1-5.2c-3.3-3.5-5-7.9-5-13.3c0-5.9,0.9-10.4,2.6-13.6c1.7-3.2,5.2-6.1,10.5-8.7
			c0.8-0.4,1.9-0.9,3.3-1.5c1.4-0.7,2.4-1.1,2.9-1.4c0.5-0.3,1.2-0.7,2.2-1.2c0.9-0.6,1.6-1,2-1.5c0.4-0.4,0.8-1,1.3-1.7
			C281.4,13,281.7,12.3,282,11.5 M274.2,53.8c2.5,0,4.5-0.8,6.1-2.3c1.6-1.5,2.4-3.4,2.4-5.8c0-2.3-0.8-4.3-2.4-5.8
			c-1.6-1.5-3.7-2.3-6.2-2.3c-2.2,0-4.3,0.7-6,2.1c-1.8,1.4-2.6,3.3-2.6,5.7c0,2.4,0.8,4.4,2.5,6C269.6,53,271.7,53.8,274.2,53.8
			 M282,7.2c-0.5,0-1,0.1-1.5,0.3c-1.2,0.5-2.1,1.4-2.5,2.6c-0.2,0.5-0.4,0.9-0.6,1.3c-0.4,0.6-0.7,1-0.9,1.2c0,0,0,0,0,0
			c0,0-0.2,0.2-1,0.7c-0.8,0.5-1.5,0.9-1.9,1.1c-0.3,0.2-1.1,0.5-2.8,1.3c-1.4,0.7-2.5,1.2-3.3,1.6c0,0-0.1,0-0.1,0
			c-6.1,3-10.2,6.5-12.4,10.5c-2.1,3.9-3.1,9-3.1,15.6c0,6.5,2.1,11.9,6.2,16.2c4.1,4.3,9.6,6.5,16.2,6.5c6.3,0,11.5-1.9,15.5-5.7
			c4.1-3.8,6.1-8.8,6.1-14.7c0-5.8-2-10.6-5.8-14.2c-1.8-1.6-3.7-2.9-5.7-3.8c1.3-0.7,2.5-1.4,3.5-2.2c2.9-2.2,4.8-5.2,5.7-9
			c0.4-1.8-0.4-3.7-2-4.6l-7.3-4.2C283.5,7.4,282.7,7.2,282,7.2L282,7.2z M274.2,49.5c-1.4,0-2.4-0.4-3.3-1.2
			c-0.8-0.8-1.2-1.6-1.2-2.9c0-1.1,0.3-1.8,1.1-2.4c1-0.8,2.1-1.2,3.4-1.2c1.9,0,2.7,0.6,3.3,1.1c0.8,0.7,1.1,1.6,1.1,2.7
			c0,1.2-0.3,2-1.1,2.7C276.9,48.9,276,49.5,274.2,49.5L274.2,49.5z"/>
	</g>
	<g>
		<path class="st0" d="M327,56.6c-3.5,3.5-7.8,5.3-12.9,5.3c-5.1,0-9.4-1.8-12.9-5.3c-3.5-3.5-5.3-7.8-5.3-12.9
			c0-5.1,1.8-9.4,5.3-12.9c3.5-3.5,7.8-5.3,12.9-5.3c5.1,0,9.4,1.8,12.9,5.3s5.3,7.8,5.3,12.9C332.3,48.8,330.5,53.1,327,56.6z
			 M307.4,50.5c1.8,1.8,4,2.7,6.6,2.7c2.7,0,4.9-0.9,6.7-2.7c1.8-1.8,2.7-4.1,2.7-6.8c0-2.8-0.9-5-2.7-6.8c-1.8-1.8-4-2.7-6.7-2.7
			c-2.7,0-4.9,0.9-6.6,2.7c-1.8,1.8-2.6,4.1-2.6,6.8C304.8,46.5,305.7,48.7,307.4,50.5z"/>
		<path class="st1" d="M314.1,25.6c5.1,0,9.4,1.8,12.9,5.3s5.3,7.8,5.3,12.9c0,5.1-1.8,9.4-5.3,12.9c-3.5,3.5-7.8,5.3-12.9,5.3
			c-5.1,0-9.4-1.8-12.9-5.3c-3.5-3.5-5.3-7.8-5.3-12.9c0-5.1,1.8-9.4,5.3-12.9C304.7,27.3,309,25.6,314.1,25.6 M314.1,53.2
			c2.7,0,4.9-0.9,6.7-2.7c1.8-1.8,2.7-4.1,2.7-6.8c0-2.8-0.9-5-2.7-6.8c-1.8-1.8-4-2.7-6.7-2.7c-2.7,0-4.9,0.9-6.6,2.7
			s-2.6,4.1-2.6,6.8c0,2.8,0.9,5,2.6,6.8C309.2,52.3,311.4,53.2,314.1,53.2 M314.1,21.3c-6.2,0-11.6,2.2-15.9,6.5
			c-4.3,4.3-6.5,9.7-6.5,15.9c0,6.2,2.2,11.6,6.5,15.9c4.3,4.3,9.7,6.5,15.9,6.5c6.2,0,11.6-2.2,15.9-6.5c4.3-4.3,6.6-9.7,6.6-15.9
			c0-6.2-2.2-11.6-6.6-15.9C325.7,23.5,320.3,21.3,314.1,21.3L314.1,21.3z M314.1,48.9c-1.5,0-2.6-0.4-3.6-1.4c-1-1-1.4-2.2-1.4-3.8
			c0-1.6,0.5-2.8,1.4-3.8c1-1,2.1-1.4,3.6-1.4c1.5,0,2.7,0.4,3.7,1.4c1,1,1.4,2.2,1.4,3.8c0,1.6-0.5,2.8-1.4,3.8
			C316.7,48.5,315.6,48.9,314.1,48.9L314.1,48.9z"/>
	</g>
	<g>
		<path class="st0" d="M368.2,60.9h-10.3l-12.5-15.6v15.6h-8.9V26.5h8.9v15.1l11.8-15.1h10.6l-13.8,17L368.2,60.9z"/>
		<path class="st1" d="M367.8,26.5l-13.8,17l14.2,17.4h-10.3l-12.5-15.6v15.6h-8.9V26.5h8.9v15.1l11.8-15.1H367.8 M367.8,22.3h-10.6
			c-1.3,0-2.5,0.6-3.3,1.6l-4.2,5.4v-2.8c0-2.3-1.9-4.3-4.3-4.3h-8.9c-2.3,0-4.3,1.9-4.3,4.3v34.4c0,2.3,1.9,4.3,4.3,4.3h8.9
			c2.3,0,4.3-1.9,4.3-4.3v-3.5l4.9,6.2c0.8,1,2,1.6,3.3,1.6h10.3c1.6,0,3.1-0.9,3.8-2.4s0.5-3.2-0.6-4.5l-12-14.7l11.6-14.3
			c1-1.3,1.2-3,0.5-4.5C370.9,23.2,369.4,22.3,367.8,22.3L367.8,22.3z M367.8,30.8L367.8,30.8L367.8,30.8L367.8,30.8z"/>
	</g>
</g>
</svg>
